Patient4_TMGait_0pt3_02_right_14_GRF.mot
version=1
nRows=58
nColumns=19
inDegrees=no
endheader
time	F1x	F1y	F1z	M1x	M1y	M1z	F2x	F2y	F2z	M2x	M2y	M2z	EC1x	EC1y	EC1z	EC2x	EC2y	EC2z
26.29	-26.1738	857.8257	51.015	-316.0962	-57.009	820.9865	-13.5363	13.3309	-4.7189	4.4747	7.6998	11.5483	-0.0592	0.0182	-0.0073	-0.0462	0.0165	0.9585
26.3083	-27.6982	878.6789	52.1776	-322.974	-58.0381	839.3491	-9.1722	9.3351	-3.1521	3.1654	5.2045	8.2063	-0.0592	0.0182	-0.0073	-0.0462	0.0165	0.9585
26.3266	-28.7828	897.1056	53.4893	-328.8486	-59.0111	854.8978	-5.4462	5.9389	-1.8085	2.0466	3.0659	5.3558	-0.0592	0.0182	-0.0073	-0.0462	0.0165	0.9585
26.3449	-29.1396	909.4089	54.8166	-332.3963	-59.7445	864.1907	-2.5927	3.3519	-0.77688	1.1922	1.4226	3.1822	-0.0592	0.0182	-0.0073	-0.0462	0.0165	0.9585
26.3631	-28.5678	912.7132	55.9779	-332.6008	-60.0295	864.5981	-0.61522	1.5725	-0.061056	0.60456	0.28277	1.6928	-0.0592	0.0182	-0.0073	-0.0462	0.0165	0.9585
26.3814	-26.9538	905.5733	56.7775	-328.9804	-59.6652	854.8448	0.6074	0.47747	0.37857	0.24365	-0.41759	0.78151	-0.0592	0.0182	-0.0073	-0.0462	0.0165	0.9585
26.3997	-24.2876	888.179	57.0547	-321.6545	-58.5107	835.1951	1.2464	-0.11353	0.60168	0.049181	-0.77773	0.29031	-0.0592	0.0182	-0.0073	-0.0462	0.0165	0.9585
26.418	-20.6722	862.1678	56.7352	-311.2663	-56.537	807.272	1.4748	-0.3952	0.67148	-0.043991	-0.9003	0.052747	-0.0592	0.0182	-0.0073	-0.0462	0.0165	0.9585
26.4363	-16.273	830.2591	55.8393	-298.8424	-53.8147	773.6845	1.4414	-0.55368	0.64524	-0.10016	-0.87424	-0.094288	-0.0592	0.0182	-0.0073	-0.0462	0.0165	0.9585
26.4546	-11.272	795.8063	54.4632	-285.6263	-50.4811	737.5903	1.264	-0.75227	0.57128	-0.17884	-0.76787	-0.29792	-0.0592	0.0182	-0.0073	-0.0462	0.0165	0.9585
26.4729	-5.8543	762.3092	52.7537	-272.8968	-46.7154	702.2471	1.0304	-1.1211	0.48761	-0.32951	-0.63359	-0.67896	-0.0592	0.0182	-0.0073	-0.0462	0.0165	0.9585
26.4911	-0.20124	732.9481	50.8875	-261.8017	-42.7216	670.5876	0.80171	-1.7552	0.41971	-0.5881	-0.51465	-1.3263	-0.0592	0.0182	-0.0073	-0.0462	0.0165	0.9585
26.5094	5.5081	710.1953	49.0405	-253.2218	-38.7047	644.8704	0.61937	-2.6997	0.38004	-0.97062	-0.43832	-2.283	-0.0592	0.0182	-0.0073	-0.0462	0.0165	0.9585
26.5277	11.0918	695.5247	47.3693	-247.6721	-34.8593	626.4394	0.51248	-3.9251	0.37574	-1.4641	-0.42288	-3.5194	-0.0592	0.0182	-0.0073	-0.0462	0.0165	0.9585
26.546	16.387	689.2544	46.0062	-245.2475	-31.3593	615.5862	0.50539	-5.2894	0.40756	-2.0122	-0.47834	-4.8969	-0.0592	0.0182	-0.0073	-0.0462	0.0165	0.9585
26.5643	21.2692	690.5831	45.0538	-245.639	-28.3442	611.5925	0.62316	-6.4974	0.46874	-2.4976	-0.6065	-6.1233	-0.0592	0.0182	-0.0073	-0.0462	0.0165	0.9585
26.5826	25.6646	697.822	44.5662	-248.2191	-25.8965	612.9554	0.89778	-7.0534	0.54749	-2.7233	-0.80282	-6.7059	-0.0592	0.0182	-0.0073	-0.0462	0.0165	0.9585
26.6009	29.5439	708.7156	44.5459	-252.1583	-24.0399	617.6861	1.3662	-6.2156	0.62157	-2.3959	-1.0507	-5.9101	-0.0592	0.0182	-0.0073	-0.0462	0.0165	0.9585
26.6191	32.8997	720.8037	44.9538	-256.5523	-22.7511	623.6346	2.056	-2.9789	0.65447	-1.1167	-1.3185	-2.7365	-0.0592	0.0182	-0.0073	-0.0462	0.0165	0.9585
26.6374	35.7232	731.728	45.7256	-260.5298	-21.9866	628.7682	2.9671	3.8878	0.5896	1.604	-1.5458	4.0391	-0.0592	0.0182	-0.0073	-0.0462	0.0165	0.9585
26.6557	38.0034	739.4586	46.7693	-263.3356	-21.6813	631.3701	4.0416	15.712	0.34946	6.2953	-1.628	15.7388	-0.0592	0.0182	-0.0073	-0.0462	0.0165	0.9585
26.674	39.7333	742.4223	47.9412	-264.3835	-21.7263	630.1506	5.13	33.6539	-0.15767	13.4224	-1.4093	33.5249	-0.0592	0.0182	-0.0073	-0.0462	0.0165	0.9585
26.6923	40.8938	739.4585	49.0304	-263.2434	-21.9664	624.2251	5.9282	58.2853	-1.0229	23.2198	-0.67788	57.9881	-0.0592	0.0182	-0.0073	-0.0462	0.0165	0.9585
26.7106	41.4361	729.7085	49.7979	-259.5993	-22.2387	613.0128	5.8452	89.0742	-2.2656	35.4855	0.81211	88.6249	-0.0592	0.0182	-0.0073	-0.0462	0.0165	0.9585
26.7289	41.3163	712.654	50.0307	-253.264	-22.3975	596.2115	4.3185	124.0598	-3.8277	49.4463	3.2088	123.5094	-0.0592	0.0182	-0.0073	-0.0462	0.0165	0.9585
26.7471	40.5849	688.3309	49.5789	-244.2618	-22.3085	573.9258	1.4215	160.2956	-5.7687	63.9065	6.5295	159.7116	-0.0592	0.0182	-0.0073	-0.0462	0.0165	0.9585
26.7654	39.4469	657.4322	48.3926	-232.87	-21.8559	546.7125	-2.4098	195.1728	-8.2207	77.7888	10.7159	194.5985	-0.0592	0.0182	-0.0073	-0.0462	0.0165	0.9585
26.7837	38.2084	621.1918	46.5266	-219.5706	-20.9634	515.4923	-6.766	228.2989	-11.0026	90.9114	15.4161	227.7564	-0.0592	0.0182	-0.0073	-0.0462	0.0165	0.9585
26.802	37.1049	580.9451	44.0901	-204.8862	-19.6178	481.2518	-11.3676	260.7686	-13.8562	103.7051	20.2651	260.2666	-0.0592	0.0182	-0.0073	-0.0462	0.0165	0.9585
26.8203	36.171	537.7701	41.1553	-189.2441	-17.8471	444.8012	-15.9667	293.736	-16.5521	116.6358	24.9425	293.2513	-0.0592	0.0182	-0.0073	-0.0462	0.0165	0.9585
26.8386	35.269	492.4729	37.7629	-172.9602	-15.7168	406.7705	-20.2876	327.7815	-18.9589	129.9447	29.2187	327.2362	-0.0592	0.0182	-0.0073	-0.0462	0.0165	0.9585
26.8569	34.1775	445.7244	33.9859	-156.2826	-13.347	367.7107	-24.0435	362.8001	-21.0694	143.5991	32.9814	362.0491	-0.0592	0.0182	-0.0073	-0.0462	0.0165	0.9585
26.8751	32.6608	398.1827	29.9568	-139.4378	-10.9169	328.1819	-27.0258	398.2157	-22.9918	157.3748	36.255	397.0414	-0.0592	0.0182	-0.0073	-0.0462	0.0165	0.9585
26.8934	30.5291	350.5553	25.8469	-122.6567	-8.6258	288.7766	-29.1497	433.4032	-24.8746	171.0284	39.1431	431.5113	-0.0592	0.0182	-0.0073	-0.0462	0.0165	0.9585
26.9117	27.683	303.6201	21.8314	-106.1861	-6.646	250.1222	-30.4024	468.0797	-26.8276	184.4532	41.7326	465.0898	-0.0592	0.0182	-0.0073	-0.0462	0.0165	0.9585
26.93	24.1134	258.185	18.0599	-90.2807	-5.1003	212.8497	-30.7997	502.3573	-28.9293	197.6955	44.0906	497.8018	-0.0592	0.0182	-0.0073	-0.0462	0.0165	0.9585
26.9483	19.9081	215.0128	14.6454	-75.1836	-4.047	177.5331	-30.4229	536.4726	-31.2552	210.8427	46.3062	529.8259	-0.0592	0.0182	-0.0073	-0.0462	0.0165	0.9585
26.9666	15.259	174.795	11.6722	-61.1217	-3.4848	144.6747	-29.4317	570.448	-33.8654	223.8917	48.487	561.1798	-0.0592	0.0182	-0.0073	-0.0462	0.0165	0.9585
26.9849	10.4498	138.1909	9.1848	-48.3191	-3.3495	114.7576	-28.0273	603.86	-36.7511	236.6713	50.6998	591.4995	-0.0592	0.0182	-0.0073	-0.0462	0.0165	0.9585
27.0031	5.8369	105.7831	7.1749	-36.9796	-3.5072	88.2179	-26.3837	635.8254	-39.7774	248.8575	52.8912	620.0007	-0.0592	0.0182	-0.0073	-0.0462	0.0165	0.9585
27.0214	1.7884	77.9419	5.5853	-27.2359	-3.7768	65.3329	-24.6165	665.2228	-42.676	260.0668	54.8637	645.6751	-0.0592	0.0182	-0.0073	-0.0462	0.0165	0.9585
27.0397	-1.3962	54.7592	4.3311	-19.1236	-3.981	46.1851	-22.8064	690.9952	-45.1121	269.9641	56.3479	667.581	-0.0592	0.0182	-0.0073	-0.0462	0.0165	0.9585
27.058	-3.5288	36.0917	3.3066	-12.5959	-3.969	30.6878	-21.0296	712.3972	-46.7773	278.3386	57.0979	685.0733	-0.0592	0.0182	-0.0073	-0.0462	0.0165	0.9585
27.0763	-4.5411	21.6466	2.4221	-7.5514	-3.6478	18.6294	-19.3477	729.1562	-47.4791	285.1425	56.9638	697.9363	-0.0592	0.0182	-0.0073	-0.0462	0.0165	0.9585
27.0946	-4.5234	11.0411	1.6384	-3.8542	-3.0242	9.7213	-17.8065	741.5132	-47.1974	290.4867	55.941	706.4164	-0.0592	0.0182	-0.0073	-0.0462	0.0165	0.9585
27.1129	-3.8225	3.8542	0.97658	-1.3522	-2.2429	3.6446	-16.4457	750.1776	-46.0874	294.6218	54.1797	711.1955	-0.0592	0.0182	-0.0073	-0.0462	0.0165	0.9585
27.1311	-2.844	-0.47921	0.47202	0.15541	-1.4808	-0.042404	-15.2993	756.317	-44.4282	297.9436	51.9437	713.3819	-0.0592	0.0182	-0.0073	-0.0462	0.0165	0.9585
27.1494	-1.8543	-2.6539	0.12422	0.91204	-0.83474	-1.9075	-14.3863	761.5078	-42.5485	300.9896	49.5425	714.4686	-0.0592	0.0182	-0.0073	-0.0462	0.0165	0.9585
27.1677	-0.99744	-3.3487	-0.090895	1.155	-0.34004	-2.5197	-13.7106	767.4179	-40.7664	304.3267	47.273	716.0437	-0.0592	0.0182	-0.0073	-0.0462	0.0165	0.9585
27.186	-0.33437	-3.1421	-0.2028	1.0842	0.0026541	-2.3658	-13.2613	775.3585	-39.3457	308.39	45.3806	719.3698	-0.0592	0.0182	-0.0073	-0.0462	0.0165	0.9585
27.2043	0.12584	-2.4816	-0.23829	0.8533	0.2091	-1.8262	-12.9906	786.0037	-38.459	313.3816	44.0125	725.1103	-0.0592	0.0182	-0.0073	-0.0462	0.0165	0.9585
27.2226	0.40228	-1.6832	-0.22345	0.57178	0.30399	-1.1702	-12.81	799.2281	-38.1684	319.2101	43.1995	733.1811	-0.0592	0.0182	-0.0073	-0.0462	0.0165	0.9585
27.2409	0.52646	-0.95612	-0.1819	0.31449	0.31547	-0.57542	-12.5938	814.0965	-38.4289	325.4873	42.8592	742.7366	-0.0592	0.0182	-0.0073	-0.0462	0.0165	0.9585
27.2591	0.53647	-0.43183	-0.13335	0.1317	0.27279	-0.16078	-12.1847	829.029	-39.1195	331.5925	42.8246	752.3314	-0.0592	0.0182	-0.0073	-0.0462	0.0165	0.9585
27.2774	0.46898	-0.19482	-0.091915	0.055905	0.20238	-0.0046231	-11.4222	842.1053	-40.074	336.7877	42.8891	760.2135	-0.0592	0.0182	-0.0073	-0.0462	0.0165	0.9585
27.2957	0.35508	-0.30383	-0.065711	0.10747	0.12476	-0.16393	-10.1772	851.4405	-41.1044	340.3583	42.8363	764.6678	-0.0592	0.0182	-0.0073	-0.0462	0.0165	0.9585
27.314	0.22305	-0.79304	-0.058505	0.29727	0.059286	-0.67819	-8.365	855.5584	-42.0283	341.7564	42.4683	764.3615	-0.0592	0.0182	-0.0073	-0.0462	0.0165	0.9585
27.3323	0.1042	-1.6645	-0.071761	0.62598	0.024659	-1.5592	-5.96	853.6399	-42.6943	340.6944	41.6337	758.5685	-0.0592	0.0182	-0.0073	-0.0462	0.0165	0.9585
